<?xml version="1.0" encoding="utf-8"?>
<!-- Generator: Adobe Illustrator 26.0.0, SVG Export Plug-In . SVG Version: 6.00 Build 0)  -->
<svg version="1.1" id="Layer_1" xmlns="http://www.w3.org/2000/svg" xmlns:xlink="http://www.w3.org/1999/xlink" x="0px" y="0px"
	 viewBox="0 0 636 388" style="enable-background:new 0 0 636 388;" xml:space="preserve">
<style type="text/css">
	.st0{fill:#F2F2F2;}
	.st1{fill-rule:evenodd;clip-rule:evenodd;fill:#F2F2F2;stroke:#F2F2F2;stroke-width:0.12;stroke-miterlimit:10;}
</style>
<g id="XMLID_192_">
	<path id="XMLID_832_" class="st0" d="M294.5,266.8c-7.6-7.4-9.9-16.5-9.7-26.4c0.1-0.1,0.3-0.2,0.4-0.3c0.4,0.2,0.8,0.4,1.2,0.7
		c7,6.2,13.4,12.9,17.5,21.4c1.3,2.7,2.3,5.6,2.4,8.6c0,0.6-0.5,1.5-1,2c-3.2,2.8-7.1,4.2-11.2,4.9c-2.1,0.4-4.4,0.6-6.5,0.6
		c-7.5,0-14.6-1.8-21.4-4.9c-0.4-0.2-0.9-0.4-1.7-0.8c0.8-0.5,1.4-1,2-1.2c7.5-2.9,15.3-4.8,23.4-4.9c1.2,0,2.3,0.2,3.5,0.2
		C293.8,266.8,294.1,266.8,294.5,266.8z"/>
	<path id="XMLID_831_" class="st0" d="M370,272.5c-4.1,2.2-8.3,3.9-12.7,4.6c-3.9,0.6-7.8,1.2-11.7,1.1c-4.9-0.1-9.7-1.1-13.9-3.8
		c-3.8-2.5-3.7-2.3-2.7-6.9c1.2-5.2,3.9-9.7,7.2-13.9c3.6-4.6,7.4-8.9,11.9-12.6c0.4-0.4,0.9-0.7,1.7-1.2c0.7,5.3-0.1,10-1.7,14.7
		c-1.6,4.6-3.6,9-7.7,12.2c5.2-0.5,10.3,0,15.3,1C360.7,268.8,365.6,270,370,272.5z"/>
	<path id="XMLID_830_" class="st0" d="M244.8,256.8c3.9-2.8,21.7-3.1,30.1-0.8c-3.7-3.5-5.4-8-6.2-12.8c-0.8-4.8-1.2-9.6,0.6-14.2
		c0.2-0.1,0.4-0.1,0.5-0.1c2.4,3.2,4.9,6.3,7,9.6c3.1,4.8,5.9,9.8,7.3,15.4c0.6,2.4,0.7,4.9,0.9,7.4c0,0.6-0.6,1.4-1.1,1.7
		c-3,2-6.3,3-9.9,3.2c-10.4,0.7-19.7-2.5-28.2-8.3C245.5,257.5,245.2,257.2,244.8,256.8z"/>
	<path id="XMLID_829_" class="st0" d="M360.1,256.1c5.2-2.1,10.7-2,16-1.7c4.2,0.2,8.3,1,12.4,1.5c0.4,0.1,0.8,0.4,1.5,0.8
		c-0.9,0.7-1.5,1.2-2.2,1.7c-6,4-12.6,6.6-19.7,7.5c-5.6,0.7-11.1,0.4-16.2-2.4c-1.5-0.8-2.3-1.8-2.1-3.7c0.4-5.8,2.4-11,5.1-16
		c2.8-5.2,6.3-10,10-14.5c0.1-0.1,0.3-0.2,0.7-0.6c1.9,4.9,1.4,9.7,0.7,14.4C365.6,248,363.9,252.6,360.1,256.1z"/>
	<path id="XMLID_828_" class="st0" d="M256.7,216.5c1.8,3.7,3.8,7.3,5.4,11.1c1.3,2.9,2.4,6,3.4,9.1c1.3,4,1.4,8.2,1,12.3
		c-0.1,0.7-0.9,1.6-1.5,1.9c-4.3,1.7-8.7,2.1-13.3,1.2c-8.5-1.7-15.7-5.8-21.9-11.7c-0.4-0.4-0.7-0.9-0.9-1.6
		c9.8-0.6,19.4-0.1,28.5,4.4c-3-4-4-8.5-4.1-13.2c-0.1-4.6,0.6-9.2,2.7-13.4C256.1,216.5,256.4,216.5,256.7,216.5z"/>
	<path id="XMLID_827_" class="st0" d="M377.4,243.1c9.1-4.6,18.7-4.9,28.3-4.6c0.1,0.1,0.2,0.3,0.2,0.4c-0.4,0.5-0.7,1.1-1.2,1.5
		c-4.9,4.7-10.6,8.1-16.9,10.3c-5.6,1.9-11.4,2.5-17.1,0.4c-1.5-0.6-2.3-1.4-2.4-3c-0.3-5.6,0.7-10.9,2.5-16.2
		c1.8-5.2,4.2-10.1,7-14.9c0.1-0.2,0.3-0.4,0.7-0.9c2.4,4.5,3,9.1,2.9,13.8C381.5,234.7,380.4,239.2,377.4,243.1z"/>
	<path id="XMLID_826_" class="st0" d="M242.1,227.2c-0.4-1.2-1.1-2.4-1.3-3.6c-0.4-2.4-0.9-4.8-0.8-7.2c0.1-4.6,1.4-8.9,3.6-12.9
		c0.2-0.4,0.4-0.8,0.7-1.1c0.6-0.7,1.2-0.7,1.5,0.3c1.1,3.5,2.4,7,3.3,10.6c1.1,4.6,1.8,9.2,1.4,13.9c-0.2,2.4-0.6,4.9-1.4,7.2
		c-0.3,0.8-2,1.4-3.2,1.5c-5.4,0.6-10.4-0.7-15.1-3.3c-5.6-3-10.2-7.1-14-12.1c-0.4-0.6-0.6-1.4-0.9-2.1c0.8,0,1.5-0.2,2.2,0
		c4.3,1,8.6,2,12.8,3.2c3.4,1,6.6,2.4,9.3,4.7c0.5,0.5,1.1,0.8,1.7,1.2C242,227.3,242,227.2,242.1,227.2z"/>
	<path id="XMLID_825_" class="st0" d="M392.5,227.5c0.8-0.5,1.2-0.8,1.6-1.1c3.6-3,7.9-4.6,12.3-5.8c3.3-0.9,6.7-1.6,10-2.4
		c0.5-0.1,1-0.2,1.6-0.2c1,0,1.3,0.5,0.8,1.3c-0.8,1.2-1.6,2.4-2.5,3.4c-5.1,5.6-10.9,10.2-18.2,12.3c-3.7,1.1-7.4,1.5-11.2,0.3
		c-0.5-0.2-1.1-0.9-1.3-1.5c-1.6-4.6-1.5-9.4-0.9-14.2c0.7-5.8,2.1-11.4,4.3-16.8c0.2-0.4,0.5-0.7,0.8-1.1c0.4,0.3,0.8,0.5,1,0.9
		c3.4,5.9,4.8,12.3,3.8,19.1c-0.2,1.6-1.2,3.2-1.8,4.8C392.6,226.8,392.6,226.9,392.5,227.5z"/>
	<path id="XMLID_820_" class="st0" d="M398.2,184.6c5.8,7.4,9.2,15.1,6.6,24.6c3.1-3.5,6.7-6.2,10.8-8.2c4-2,8-4.1,12.5-4.7
		c0.1,0.1,0.2,0.2,0.3,0.4c-0.5,1.1-0.9,2.3-1.5,3.3c-3.7,6.4-8.6,11.6-15.1,15.1c-3.4,1.8-7,2.9-10.9,2.4c-1-0.1-1.4-0.5-1.9-1.4
		c-1.5-2.9-2.4-6.1-2.6-9.4c-0.2-3.4-0.5-6.9-0.4-10.4c0.1-3.2,0.8-6.4,1.3-9.6C397.4,186.2,397.8,185.6,398.2,184.6z"/>
	<path id="XMLID_819_" class="st0" d="M230.1,209.1c-2.8-9.4,0.6-17.1,6.1-24.1c0.2,0,0.4,0,0.6,0c0.2,0.8,0.6,1.5,0.7,2.3
		c1,5.2,1.7,10.5,1.2,15.8c-0.4,4.5-0.8,9.1-3.2,13.1c-0.3,0.6-1.1,1.1-1.7,1.2c-3.3,0.4-6.4-0.3-9.3-1.6
		c-8.1-3.7-13.6-9.9-17.6-17.6c-0.2-0.5-0.2-1.1-0.3-1.6c0.5,0,1.1-0.1,1.5,0c2.3,0.7,4.6,1.3,6.7,2.3c2.9,1.3,5.7,2.7,8.3,4.5
		C225.4,205,227.6,207.1,230.1,209.1z"/>
	<path id="XMLID_812_" class="st0" d="M414.5,187c5.1-6.1,11.3-10.4,19-13.2c-0.1,0.8-0.1,1.2-0.2,1.5c-2.2,6.8-5.8,12.6-11,17.5
		c-2.9,2.7-6.3,4.4-10.2,5.3c-1.5,0.3-2.4-0.4-3.1-1.5c-1.9-2.9-3-6-3.7-9.3c-1.2-4.9-1.5-9.9-1.2-15c0.1-1.2,0.2-2.4,0.4-3.6
		c0.1-1,0.6-1.1,1.3-0.4c2.7,2.6,4.9,5.6,6.6,9C413.8,180.3,414.7,183.5,414.5,187z"/>
	<path id="XMLID_811_" class="st0" d="M229.9,167.3c0.3,1.1,0.6,1.8,0.6,2.5c0.6,7.6,0.1,15.1-2.6,22.3c-0.6,1.6-1.6,3-2.4,4.5
		c-0.8,1.4-1.9,1.6-3.4,1.3c-4.1-1-7.6-3-10.6-5.9c-4.8-4.7-8.2-10.2-10.2-16.6c-0.1-0.4-0.1-0.8-0.1-1.2c0.4,0,0.9-0.1,1.4,0.1
		c6.8,2.8,12.7,6.8,17.6,13.1c-0.2-4.2,0.8-7.7,2.5-11C224.5,173,226.8,170.1,229.9,167.3z"/>
	<path id="XMLID_810_" class="st0" d="M197.5,150.8c4.3,2.1,7.7,4.7,10.8,7.7c3.1,3,5.2,6.7,7,10.7c-0.4-7.3,2.5-13,7.5-17.9
		c1.2-1.2,2.6-2.2,3.9-3.3c0.2,0.1,0.4,0.2,0.6,0.3c-0.1,2.1-0.1,4.2-0.3,6.3c-0.7,5.2-2.1,10.3-4.7,14.9c-1.2,2.3-3,4.3-4.7,6.2
		c-0.9,1-2.1,0.3-3.1,0c-3.6-1.3-6.4-3.7-8.9-6.6c-4.1-4.8-6.8-10.3-7.9-16.5C197.5,152.2,197.6,151.7,197.5,150.8z"/>
	<path id="XMLID_809_" class="st0" d="M419.6,169.2c2.3-6.2,6.3-11.1,11.7-15c1.8-1.2,3.6-2.3,5.4-3.5c0.2,0.1,0.3,0.2,0.5,0.3
		c-0.1,1.1-0.2,2.2-0.5,3.2c-1.4,5.2-3.6,10-7,14.1c-2.7,3.2-5.8,5.9-9.7,7.4c-1.4,0.5-2.6,0.5-3.8-0.8c-2.7-2.8-4.4-6.2-5.7-9.7
		c-2-5.1-3.2-10.4-3-16c0-0.4,0.2-0.9,0.5-1.1c0.2-0.1,0.8,0.1,1,0.3c3.3,2.7,6.4,5.8,8.3,9.7c1.4,2.7,2.1,5.6,2,8.7
		c0,0.7,0,1.3,0,2C419.4,169.2,419.5,169.2,419.6,169.2z"/>
	<path id="XMLID_808_" class="st0" d="M422.8,147.2c0.5-1.2,1-2.5,1.5-3.7c2-5.7,5.9-9.8,10.5-13.3c0.1-0.1,0.3-0.2,0.5-0.3
		c0.6-0.4,1.3-0.8,1.9-1.2c0.1,0.8,0.3,1.6,0.2,2.3c-0.8,7.4-3.6,13.9-8.7,19.4c-1.4,1.4-3.2,2.5-4.9,3.7c-1.3,0.9-2.7,0.8-3.8-0.5
		c-1.9-2.2-3.9-4.3-5.5-6.8c-2.8-4.3-4.6-9.1-5.2-14.3c-0.1-0.7-0.3-1.3-0.4-2c0-0.4,0.1-1,0.4-1.3c0.2-0.2,0.9,0,1.2,0.2
		c2.2,1.8,4.5,3.4,6.5,5.4c3,3,4.4,6.9,5,11.1c0,0.4,0.2,0.8,0.4,1.1C422.5,147.2,422.7,147.2,422.8,147.2z"/>
	<path id="XMLID_807_" class="st0" d="M197.3,128.4c7.2,4.6,12.3,10.5,14.5,18.9c0.1,0,0.3,0,0.4,0c0.2-0.5,0.4-0.9,0.5-1.4
		c0.5-3.3,1.5-6.4,3.5-9.2c2.1-2.9,4.8-5.2,7.9-7.1c0.4-0.2,0.9-0.4,1.5-0.6c0.1,0.7,0.2,1.3,0.1,1.8c-1,7.2-3.5,13.8-8,19.6
		c-0.9,1.1-1.9,2.1-2.9,3c-1.8,1.6-2.2,1.6-4.4,0.4c-4.1-2.2-6.8-5.8-9-9.7c-2.7-4.6-3.9-9.6-4.3-14.9
		C197.1,129.1,197.2,128.9,197.3,128.4z"/>
	<path id="XMLID_806_" class="st0" d="M226.1,109.7c-0.4,1.7-0.6,3.4-1.1,5c-1.9,6.3-5.3,11.7-10.3,16c-3,2.6-3.5,2.9-6.9-0.2
		c-4.5-4.2-7.3-9.4-8.2-15.6c-0.4-2.2-0.4-4.3-0.6-6.5c0-0.5,0.1-1,0.2-1.9c6.7,5.1,10.8,11.4,12.2,19.6c2-8.1,6.7-13.6,14.2-16.6
		C225.8,109.6,226,109.7,226.1,109.7z"/>
	<path id="XMLID_805_" class="st0" d="M408.9,109.4c3.7,1.6,6.8,3.8,9.4,6.6c2.6,2.8,3.5,6.5,4.7,10c1.5-3.7,2.6-7.4,4.4-10.7
		c1.8-3.4,4.6-6.2,7.7-8.5c0.2,0.1,0.3,0.1,0.5,0.2c0,1.9,0.2,3.8,0,5.7c-0.9,6.8-3.4,12.9-8.5,17.7c-3.5,3.3-4,3.2-7.3,0.3
		c-5.1-4.5-8.6-10.1-10.3-16.8c-0.3-1.1-0.5-2.3-0.7-3.4C408.7,110.2,408.8,109.9,408.9,109.4z"/>
	<path id="XMLID_804_" class="st0" d="M422,105c0.5-7.8,3.4-14.4,9.4-19.9c0.3,0.8,0.6,1.4,0.6,2c0.4,3.6,0,7.2-0.9,10.7
		c-1.1,4.3-3.3,8.1-6.3,11.3c-1.7,1.8-2.9,2.1-4.9,0.8c-6-4.1-10.4-9.4-12.6-16.5c-0.2-0.7-0.5-1.4-0.6-2.1c-0.3-1.1,0.3-1.4,1.2-1
		c5.3,2.2,9.8,5.3,12,11c0.5,1.2,1,2.4,1.6,3.6C421.7,104.9,421.8,104.9,422,105z"/>
	<path id="XMLID_803_" class="st0" d="M213.2,104.8c0.7-1.5,1.4-2.9,2.1-4.4c2-4.7,5.8-7.4,10.2-9.5c0.8-0.3,1.6-0.4,2.4-0.6
		c-0.1,0.9-0.1,1.8-0.3,2.7c-2.1,7.1-6.5,12.4-12.4,16.7c-2.2,1.6-3.4,1.3-5.3-0.7c-5.4-5.7-7.5-12.5-7.3-20.2
		c0-0.9,0.2-1.8,0.4-2.7c0.2-0.8,0.6-0.9,1.2-0.3c4.1,4.3,7.4,9.2,8.1,15.3c0.1,1.3,0.4,2.5,0.7,3.8
		C212.9,104.9,213.1,104.8,213.2,104.8z"/>
	<path id="XMLID_802_" class="st0" d="M414.5,67.1c3.4,3.1,6.1,6.3,7.4,10.3c0.8,2.5,1.1,5.2,1.4,7.8c0.2,2.3-0.6,4.5-1.9,6.5
		c-0.6,1-1.3,1-2.2,0.4c-2.4-1.8-3.9-4.2-4.9-7c-1.9-5.2-1.7-10.5-0.6-15.8C413.8,68.6,414.1,68,414.5,67.1z"/>
	<path id="XMLID_801_" class="st0" d="M220.3,67.3c4,8.1,2.3,22.7-5.2,25.6c-2.1-2.1-3-4.9-3-7.8c0.1-5.8,2.1-10.9,6.1-15.2
		C219,69.1,219.6,68.1,220.3,67.3z"/>
	<path id="XMLID_800_" class="st0" d="M324.9,271.4c-0.3,0.4-0.5,0.7-0.8,1c-1.9,1.9-3.8,3.7-5.6,5.5c-0.8,0.8-1.3,0.7-2,0
		c-1.8-1.9-3.7-3.7-5.6-5.5c-0.8-0.7-0.8-1.3,0-2.1c1.9-1.9,3.8-3.9,5.8-5.8c0.3-0.3,1.3-0.4,1.6-0.2c2.1,2,4.1,4.1,6.2,6.2
		C324.6,270.7,324.6,271,324.9,271.4z"/>
	<path id="XMLID_704_" class="st0" d="M322.5,54.8c0-1.3,0-2.6,0-4c0-1,0.3-1.4,1.3-1.4c2.7,0,5.4,0,8,0c0.9,0,1.3,0.5,1.3,1.4
		c0,2.7,0,5.5,0,8.2c0,1-0.5,1.4-1.5,1.4c-2.6,0-5.2,0-7.7,0c-1,0-1.5-0.3-1.5-1.4C322.6,57.5,322.5,56.1,322.5,54.8
		C322.5,54.8,322.5,54.8,322.5,54.8z"/>
	<path id="XMLID_703_" class="st0" d="M312.5,54.9c0,1.4,0,2.8,0,4.2c0,0.8-0.4,1.2-1.1,1.2c-2.8,0-5.5,0.1-8.3,0
		c-0.4,0-1.1-0.7-1.1-1.1c-0.1-2.9-0.1-5.8,0-8.6c0-0.4,0.7-1,1-1c2.8-0.1,5.5-0.1,8.3-0.1c0.9,0,1.3,0.5,1.2,1.4
		C312.4,52.2,312.5,53.5,312.5,54.9z"/>
	<path id="XMLID_690_" class="st0" d="M395.7,94.4c-6.2,0.4-12.2-0.6-18.1-2.6c-4.7-1.6-9.4-3.2-13.9-5.2c-6.7-2.9-13.2-6-19.8-9.2
		c-5.9-2.9-12-5-18.5-5.7c-7-0.7-14-0.4-20.9,1.1c-7.1,1.5-14,3.7-20.7,6.7c-8,3.6-16.1,7.4-24.2,10.8c-6.7,2.8-13.6,4.6-21,3.9
		c-1.1-0.1-1.5,0.3-1.3,1.4c0.5,2.4,1.1,4.7,1.5,7.1c0.9,5,1.8,10,2.5,15c0.7,5.1,1.2,10.2,1.6,15.3c0.6,8.1,1.4,16.1,1.7,24.2
		c0.3,7.3,0.1,14.5,0.1,21.8h0.4c0,1.3,0,2.5,0,3.8c-0.1,4.3,0.7,8.4,2.3,12.4c2.4,5.9,6.3,10.9,10.9,15.2c3.7,3.6,7.8,6.7,12,9.7
		c4.3,3.1,8.8,6,13.4,8.6c7,3.9,14.1,7.6,21.2,11.3c3.2,1.7,6.5,3.1,9.8,4.5c1.3,0.6,2.5,1.5,4.1,0.7c5.5-2.5,11.1-4.9,16.5-7.5
		c10.9-5.2,21.1-11.4,30.4-19.2c6.9-5.8,13-12.2,17.6-20.1c3.1-5.2,5.3-10.8,5.6-16.9c0.5-10.2,0.5-20.5,1-30.7
		c0.3-6.6,0.8-13.2,1.5-19.8c0.7-6.3,1.5-12.6,2.6-18.8c0.9-5.4,2.1-10.8,3.3-16.2C397.5,94.6,397.4,94.3,395.7,94.4z M348.4,210.3
		c-3.4,2.1-6.8,4.4-10.3,6.3c-5.4,2.8-10.9,5.4-16.3,8c-1.1,0.6-2.3,1.1-3.5,1.4c-0.6,0.2-1.4,0.1-1.9-0.1
		c-10.3-4.4-20.2-9.6-29.8-15.4c-1.6-1-2.4-2.1-2.4-4.2c0.1-22.9,0-45.8,0-68.7c0-0.4,0.1-0.8,0.1-1.2c0.2,0,0.4-0.1,0.5-0.1
		c0.9,1.8,1.9,3.6,2.8,5.4c4.5,8.9,9,17.9,13.4,26.9c5.1,10.3,10.3,20.6,15.4,30.9c0.1,0.3,0.4,0.5,0.6,0.7c0.2-0.2,0.5-0.4,0.6-0.7
		c4.9-9.8,9.8-19.5,14.8-29.3c5-9.9,10-19.9,15-29.8c0.7-1.4,1.3-2.8,2-4.1c0.1,0,0.3,0,0.5,0.1c0.1,0.5,0.2,0.9,0.2,1.4
		c0,23.2,0,46.5,0,69.7C350.3,208.9,349.5,209.7,348.4,210.3z M379.4,110.5c-0.9,4.3-1.9,8.6-2.6,12.8c-0.7,4.3-1.3,8.6-1.8,12.9
		c-0.5,4.5-0.8,8.9-1.1,13.4c-0.3,5.2-0.5,10.3-0.7,15.5c-0.2,4.1-0.3,8.3-0.5,12.4c-0.1,3.6-1.5,6.9-3.1,10.1c-2.3,5-6,9-9.6,13
		c-0.2,0.3-0.6,0.5-1.1,0.9c-0.1-0.8-0.2-1.3-0.2-1.8c0-23.5,0-47,0-70.5c0-2.3,0.6-3.1,2.9-3.5c0.7-0.2,1.4-0.3,2.1-0.6
		c0.4-0.1,0.6-0.5,0.9-0.8c-0.4-0.2-0.8-0.4-1.2-0.6c-0.2-0.1-0.4,0-0.6,0c-7,0-14,0-21,0c-0.4,0-0.8,0-1.2,0.1
		c-0.2,0.1-0.7,0.3-0.6,0.4c0,0.3,0.2,0.7,0.5,0.8c1,0.4,2,0.7,3,1.1c1.9,0.8,2.2,1.6,1.4,3.4c-1.9,4-3.9,7.9-5.9,11.9
		c-3,6.1-6,12.1-9,18.1c-3.2,6.4-6.4,12.7-9.6,19c-0.6,1.2-1.2,2.4-1.8,3.7c-0.2,0.3-0.5,0.8-0.7,0.8c-0.3-0.1-0.7-0.4-0.9-0.8
		c-3-5.8-5.9-11.6-8.8-17.4c-4.3-8.5-8.6-16.9-12.8-25.4c-1.6-3.2-3.2-6.3-4.7-9.5c-1.2-2.5-1-3.1,1.6-4c0.9-0.3,1.9-0.6,2.8-0.9
		c0.2-0.1,0.4-0.5,0.6-0.7c-0.2-0.2-0.5-0.5-0.8-0.5c-0.6-0.1-1.2-0.1-1.8-0.1c-6.9,0-13.8,0-20.8,0c-0.3,0-0.7-0.1-1,0
		c-0.4,0.1-0.7,0.4-1,0.6c0.3,0.2,0.5,0.6,0.8,0.7c1,0.3,2,0.5,3,0.7c1.5,0.3,2.4,1.2,2.6,2.7c0.1,0.8,0.1,1.6,0.1,2.3
		c0,23.4,0,46.8,0,70.2c0,0.5-0.1,1.1-0.1,1.6c-0.1,0.1-0.3,0.2-0.4,0.2c-0.9-0.7-1.9-1.3-2.7-2.1c-2.7-3-5.4-5.9-7.8-9
		c-3.4-4.3-4.7-9.3-4.5-14.8c0.2-4.7,0.1-9.4-0.1-14.1c-0.4-7.6-0.7-15.3-1.4-22.9c-0.6-7.1-1.6-14.2-2.6-21.3
		c-0.4-2.7-1.1-5.3-1.8-8c-0.4-1.8-0.3-2.1,1.5-2c4.8,0.2,9.5-0.9,14-2.4c6-2,11.5-5.1,17.3-7.7c5.2-2.3,10.6-4.1,16-5.7
		c5-1.6,10.2-2.1,15.5-2c6.8,0.2,13.1,2,19.1,5.1c7.8,4,15.8,7.8,24.2,10.4c4.8,1.5,9.8,2.7,14.9,2.3
		C379.5,108.6,379.7,109,379.4,110.5z"/>
</g>
<g>
	<polygon id="XMLID_191_" class="st1" points="129.4,342.4 129.4,313.5 129.4,313.3 129.6,313.3 133.4,313.3 133.5,313.3 
		133.5,313.4 145.2,330.1 156.9,313.4 156.9,313.3 157,313.3 160.7,313.3 160.9,313.3 160.9,313.5 160.9,342.4 160.9,342.5 
		160.7,342.5 156.2,342.5 156.1,342.5 156.1,342.4 156.1,322.1 145.3,337.8 145.2,338 145,337.8 134.3,322.1 134.3,342.4 
		134.3,342.5 134.1,342.5 129.6,342.5 129.4,342.5 	"/>
	<polygon id="XMLID_184_" class="st1" points="246.1,342.4 246.1,313.5 246.1,313.3 246.2,313.3 250,313.3 250.1,313.3 250.1,313.4 
		261.8,330.1 273.5,313.4 273.5,313.3 273.6,313.3 277.4,313.3 277.5,313.3 277.5,313.5 277.5,342.4 277.5,342.5 277.4,342.5 
		272.9,342.5 272.7,342.5 272.7,342.4 272.7,322.1 261.9,337.8 261.8,338 261.7,337.8 250.9,322.1 250.9,342.4 250.9,342.5 
		250.8,342.5 246.2,342.5 246.1,342.5 	"/>
	<polygon id="XMLID_110_" class="st1" points="304.2,342.4 304.2,313.5 304.2,313.3 304.4,313.3 331.4,313.3 331.6,313.3 
		331.6,313.5 331.6,317.7 331.6,317.9 331.4,317.9 309.1,317.9 309.1,324.7 323.7,324.7 323.9,324.7 323.9,324.9 323.9,329 
		323.9,329.2 323.7,329.2 309.1,329.2 309.1,338 331.8,338 332,338 332,338.2 332,342.4 332,342.5 331.8,342.5 304.4,342.5 
		304.2,342.5 	"/>
	<polygon id="XMLID_100_" class="st1" points="364.2,342.4 364.2,313.5 364.2,313.3 364.4,313.3 366.8,313.3 366.9,313.3 
		366.9,313.3 384.9,333.3 384.9,313.5 384.9,313.3 385.1,313.3 389.5,313.3 389.7,313.3 389.7,313.5 389.7,342.4 389.7,342.5 
		389.5,342.5 387.1,342.5 387.1,342.5 387,342.5 369,322.6 369,342.4 369,342.5 368.8,342.5 364.4,342.5 364.2,342.5 	"/>
	<polygon id="XMLID_88_" class="st1" points="429.4,342.4 429.4,317.6 417.4,317.6 417.3,317.6 417.3,317.5 417.3,313.5 
		417.3,313.3 417.4,313.3 446.3,313.3 446.4,313.3 446.4,313.5 446.4,317.5 446.4,317.6 446.3,317.6 434.3,317.6 434.3,342.4 
		434.3,342.5 434.1,342.5 429.6,342.5 429.4,342.5 	"/>
	<path id="XMLID_87_" class="st1" d="M474.8,338.6l2.2-3.8l0.1-0.2l0.1,0.1c1,0.7,2,1.2,3.1,1.8l0,0c1.1,0.5,2.2,1,3.4,1.3l0,0
		c1.2,0.4,2.3,0.6,3.4,0.8c1.1,0.2,2.2,0.3,3.3,0.3c1.3,0,2.4-0.1,3.4-0.4s1.9-0.6,2.7-1.2c0.8-0.5,1.3-1.1,1.7-1.7
		c0.4-0.6,0.6-1.4,0.6-2.1s-0.2-1.5-0.5-2.1c-0.4-0.6-0.9-1.1-1.6-1.5c-0.7-0.4-1.6-0.7-2.7-0.9c-1.1-0.2-2.5-0.4-4-0.4
		c-2.6,0-4.9-0.2-6.7-0.5c-1.8-0.3-3.2-0.8-4.2-1.3l0,0c-1-0.6-1.8-1.4-2.3-2.4c-0.5-1-0.8-2.1-0.8-3.5c0-1.3,0.3-2.4,0.8-3.4
		c0.5-1,1.4-1.9,2.5-2.7c1.1-0.8,2.4-1.3,3.8-1.7c1.5-0.4,3.1-0.6,4.9-0.6c1.2,0,2.5,0.1,3.7,0.3c1.2,0.2,2.4,0.4,3.6,0.8l0,0
		c1.2,0.4,2.3,0.8,3.4,1.3c1.1,0.5,2.2,1.1,3.3,1.8l0.1,0.1l-0.1,0.1l-2.3,3.7l-0.1,0.1l-0.1-0.1c-0.9-0.6-1.8-1.1-2.8-1.6
		s-2-0.9-3-1.2l0,0c-1-0.3-2-0.6-3-0.7s-1.9-0.2-2.9-0.2c-1.1,0-2.1,0.1-2.9,0.3c-0.9,0.2-1.6,0.5-2.3,0.8l0,0
		c-0.6,0.4-1.1,0.8-1.4,1.3c-0.3,0.5-0.5,1-0.5,1.6c0,0.6,0.2,1.1,0.5,1.5c0.3,0.4,0.8,0.8,1.4,1c0.6,0.3,1.5,0.5,2.7,0.6
		c1.1,0.1,2.6,0.2,4.2,0.2c2.3,0,4.3,0.2,6.1,0.6c1.8,0.4,3.2,1,4.4,1.8s2.1,1.8,2.7,3c0.6,1.2,0.9,2.5,0.9,4.1
		c0,1.4-0.3,2.7-0.9,3.8c-0.6,1.2-1.5,2.2-2.7,3.1l0,0c-2.4,1.8-5.5,2.7-9.3,2.7c-1.4,0-2.8-0.1-4.2-0.3c-1.4-0.2-2.8-0.5-4.2-0.9
		l0,0c-1.4-0.4-2.7-0.9-4-1.5c-1.3-0.6-2.5-1.2-3.6-2l-0.1-0.1L474.8,338.6z"/>
	<g id="XMLID_29_">
		<rect id="XMLID_56_" x="311.9" y="303.5" class="st1" width="3.4" height="3.4"/>
		<rect id="XMLID_30_" x="320" y="303.5" class="st1" width="3.4" height="3.4"/>
	</g>
	<path class="st1" d="M219.8,321.8c-0.8-1.8-2.1-3.5-3.8-5c-3.3-2.9-7.6-4.3-12.9-4.3c-2.6,0-5,0.4-7.1,1.1c-2.1,0.7-4,1.8-5.7,3.3
		c-1.7,1.5-2.9,3.1-3.8,5c-0.8,1.8-1.2,3.9-1.2,6.1c0,2.2,0.4,4.3,1.3,6.1c0.8,1.8,2.1,3.5,3.8,5c1.7,1.5,3.6,2.6,5.7,3.3
		c2.1,0.7,4.5,1.1,7.1,1.1c2.6,0,5-0.4,7.1-1.1c2.1-0.7,4-1.8,5.7-3.3c1.7-1.5,2.9-3.1,3.8-5c0.8-1.8,1.3-3.9,1.3-6.1
		C221.1,325.7,220.7,323.7,219.8,321.8z M214.5,331.8c-0.6,1.2-1.4,2.3-2.5,3.2c-1.1,1-2.4,1.7-3.8,2.1c-1.4,0.5-3,0.7-4.8,0.7
		c-1.8,0-3.3-0.2-4.8-0.7c-1.4-0.5-2.7-1.2-3.8-2.1c-1.1-1-1.9-2-2.5-3.2c-0.5-1.2-0.8-2.5-0.8-4c0-1.5,0.3-2.8,0.8-4
		c0.5-1.2,1.4-2.3,2.5-3.2c1.1-1,2.4-1.7,3.8-2.1c1.4-0.5,3-0.7,4.8-0.7s3.3,0.2,4.8,0.7c1.4,0.5,2.7,1.2,3.8,2.1
		c2.2,1.9,3.3,4.3,3.3,7.2C215.4,329.3,215.1,330.6,214.5,331.8z"/>
</g>
</svg>